<?xml version="1.0" encoding="utf-8"?>
<svg version="1.1" id="logo-i-for-business" xmlns="http://www.w3.org/2000/svg" x="0px" y="0px" viewBox="0 0 99.981 100" enable-background="new 0 0 99.981 100" xml:space="preserve">
<path fill="#007CC3" d="M99.981,50.01C99.938,77.505,77.866,99.957,50.015,100C22.178,100.043-0.594,77.256,0.012,48.848
	C0.578,22.314,22.088-0.018,50.045,0C77.882,0.018,99.95,22.482,99.981,50.01z M2.231,49.994
	c-0.086,26.22,21.077,47.564,47.242,47.792c27.099,0.237,48.092-21.482,48.294-47.354c0.208-26.76-21.22-47.951-47.206-48.24
	C23.59,1.894,2.095,23.772,2.231,49.994z"/>
<path fill="#007CC3" d="M25.615,67.71c-0.551-0.037-1.097,0.139-1.465,0.558c-0.606,0.689-0.775,1.777-0.577,2.652
	c0.103,0.454,0.318,0.886,0.633,1.23c0.351,0.384,0.852,0.48,1.362,0.459c0.652-0.028,1.147-0.291,1.451-0.896
	c0.46-0.916,0.479-1.845,0.129-2.776C26.9,68.275,26.32,67.757,25.615,67.71z M51.098,5.706C25.755,5.155,5.639,25.339,5.616,49.955
	C5.593,74.869,25.491,94.026,49.194,94.422c25.259,0.422,45.284-20.071,45.117-44.372C94.405,25.687,74.733,6.219,51.098,5.706z
	 M49.949,16.95c2.193,0.019,3.805,1.618,3.796,3.766c-0.009,2.042-1.679,3.596-3.841,3.573c-2.157-0.023-3.774-1.617-3.741-3.687
	C46.196,18.51,47.833,16.931,49.949,16.95z M53.1,39.284c0,3.117,0.001,6.234-0.002,9.351c0,0.46-0.373,0.836-0.833,0.837
	c-1.529,0.004-3.058-0.014-4.586,0.009c-0.537,0.008-0.772-0.147-0.77-0.728c0.014-6.32,0.012-12.639,0-18.959
	c-0.001-0.401,0.326-0.724,0.727-0.718c1.565,0.021,3.131,0.026,4.696-0.003c0.6-0.011,0.78,0.221,0.777,0.797
	c-0.009,1.569-0.012,3.138-0.011,4.707C53.098,36.146,53.1,37.715,53.1,39.284z M22.096,64.406
	c-0.006,0.014-0.017,0.024-0.028,0.034c-0.337,0.301-0.713,0.247-1.119,0.181c-0.588-0.095-0.98,0.304-1.023,0.88
	c-0.021,0.278,0,0.559-0.008,0.839c-0.022,0.84,0.851,0.431,1.344,0.607c0.316,0.113,0.539,0.409,0.255,0.669
	c-0.062,0.056-0.125,0.114-0.2,0.15c-0.138,0.067-0.299,0.056-0.452,0.055c-0.325-0.002-0.727,0.056-0.88,0.382
	c-0.143,0.303-0.069,0.676-0.069,0.998c0,1.205-0.002,2.41-0.001,3.615c0,0.344-0.021,0.653-0.492,0.663
	c-0.507,0.011-0.537-0.313-0.535-0.686c0.004-0.71,0.001-1.42-0.001-2.13c0-0.732,0.034-1.466-0.02-2.194
	c-0.017-0.234-0.264-0.454-0.415-0.674c-0.099-0.145-0.296-0.275-0.301-0.417c-0.005-0.143,0.151-0.389,0.278-0.42
	c0.423-0.104,0.463-0.388,0.46-0.733c-0.004-0.409-0.015-0.819,0.011-1.226c0.051-0.773,0.494-1.257,1.263-1.286
	c0.625-0.024,1.773-0.231,1.935,0.637C22.1,64.369,22.103,64.389,22.096,64.406z M25.461,73.613
	c-1.861-0.001-3.199-1.418-3.205-3.394c-0.006-2.09,1.247-3.439,3.187-3.432c1.936,0.007,3.126,1.299,3.124,3.391
	C28.565,72.264,27.344,73.614,25.461,73.613z M32.716,67.767c-0.278,0.115-0.635,0.035-0.957,0.052
	c-0.516,0.026-0.761,0.267-0.752,0.82c0.025,1.376,0.003,2.754,0.009,4.131c0.002,0.405-0.039,0.72-0.574,0.72
	c-0.54,0.001-0.571-0.322-0.567-0.723c0.012-1.235-0.008-2.469,0.011-3.704c0.004-0.252-0.019-0.88-0.015-1.132
	c0.006-0.398,0.171-0.666,0.573-0.745c0.753-0.149,1.51-0.293,2.272-0.377c0.179-0.02,0.385,0.21,0.578,0.325
	C33.105,67.353,32.955,67.668,32.716,67.767z M42.985,71.275c-0.144,1.027-0.68,1.749-1.693,2.066
	c-1.181,0.369-2.383,0.351-3.576,0.102c-0.247-0.051-0.45-0.31-0.453-0.563c-0.03-2.621-0.027-5.242-0.004-7.863
	c0.002-0.177,0.226-0.499,0.354-0.503c1.106-0.032,2.224-0.1,3.316,0.032c0.899,0.108,1.473,0.773,1.654,1.684
	c0.183,0.924-0.085,1.699-0.859,2.274c-0.084,0.062-0.159,0.136-0.313,0.269c0.179,0.114,0.283,0.184,0.391,0.247
	C42.646,69.511,43.111,70.378,42.985,71.275z M49.233,73.052c-1.109,0.431-2.241,0.747-3.457,0.438
	c-0.989-0.252-1.562-0.909-1.572-1.924c-0.013-1.333,0.003-2.666-0.006-3.999c-0.003-0.409,0.111-0.65,0.58-0.65
	c0.483,0,0.564,0.268,0.561,0.665c-0.008,1.161-0.007,2.322,0,3.483c0.007,1.119,0.452,1.556,1.579,1.541
	c0.277-0.004,0.554-0.057,0.83-0.09c0.698-0.083,0.833-0.561,0.628-1.528c-0.213-1.004-0.111-2.032,0.063-3.043
	c0.072-0.417-0.147-1.009,0.52-1.019c0.378-0.005,0.496,0.213,0.523,0.553c0.055,0.695-0.017,1.403-0.015,2.101
	c0.002,0.711,0.022,1.425,0.08,2.134C49.575,72.049,49.698,72.909,49.233,73.052z M55.139,71.945
	c-0.086,0.778-0.642,1.378-1.676,1.526c-0.7,0.1-1.438-0.028-2.155-0.095c-0.299-0.028-0.521-0.191-0.398-0.578
	c0.112-0.351,0.307-0.372,0.64-0.318c0.519,0.085,1.064,0.16,1.576,0.085c0.266-0.039,0.635-0.381,0.681-0.636
	c0.052-0.29-0.119-0.732-0.347-0.936c-0.358-0.321-0.84-0.508-1.279-0.733c-1.036-0.531-1.441-1.225-1.233-2.142
	c0.173-0.766,1.022-1.31,2.067-1.326c0.064-0.001,0.129,0,0.194,0c0.002-0.013,0.004-0.026,0.006-0.039
	c0.359,0.059,0.736,0.069,1.069,0.196c0.164,0.063,0.346,0.344,0.341,0.522c-0.009,0.321-0.231,0.447-0.594,0.375
	c-0.413-0.083-0.858-0.154-1.261-0.079c-0.256,0.047-0.635,0.358-0.648,0.569c-0.019,0.301,0.172,0.713,0.411,0.908
	c0.356,0.291,0.831,0.439,1.259,0.64C54.762,70.338,55.238,71.062,55.139,71.945z M57.151,73.489
	c-0.487-0.009-0.557-0.281-0.556-0.672c0.006-1.742,0.006-3.484,0-5.225c-0.001-0.39,0.07-0.665,0.556-0.674
	c0.527-0.009,0.59,0.291,0.585,0.706c-0.011,0.882-0.003,1.763-0.003,2.645c0,0.839-0.008,1.677,0.003,2.516
	C57.742,73.199,57.679,73.498,57.151,73.489z M56.571,64.67c0-0.316,0.256-0.572,0.572-0.572c0.316,0,0.572,0.256,0.572,0.572
	c0,0.316-0.256,0.572-0.572,0.572C56.827,65.242,56.571,64.986,56.571,64.67z M45.309,55.551c-2.783-0.38-5.592-0.593-8.396-0.781
	c-4.008-0.269-8.021-0.448-12.033-0.662c-1.157-0.062-2.315-0.115-3.473-0.172c-0.006-0.01-0.013-0.02-0.019-0.029h54.913
	c-0.557,0.666-0.974,1.28-1.502,1.775c-1.707,1.601-3.457,3.157-5.187,4.734c-0.282,0.257-0.688,0.318-1.037,0.163
	c-3.186-1.419-6.536-2.342-9.953-2.946C54.2,56.851,49.759,56.16,45.309,55.551z M64.567,72.937
	c-0.004,0.183-0.27,0.463-0.465,0.517c-0.367,0.103-0.536-0.15-0.535-0.521c0.003-1.075-0.018-2.151,0.001-3.226
	c0.038-2.142-1.381-2.26-2.81-1.763c-0.204,0.071-0.398,0.49-0.406,0.753c-0.041,1.375-0.019,2.752-0.022,4.128
	c-0.001,0.31,0,0.619-0.435,0.65c-0.413,0.03-0.594-0.152-0.59-0.562c0.016-1.698-0.095-3.396-0.046-5.092
	c0.005-0.174,0.127-0.442,0.265-0.501c1.214-0.518,2.47-0.74,3.773-0.367c0.796,0.227,1.25,0.784,1.272,1.597
	C64.607,70.012,64.601,71.475,64.567,72.937z M71.399,70.106c-0.042,0.17-0.336,0.372-0.53,0.392
	c-0.532,0.054-1.073,0.019-1.61,0.019v0.006c-0.537,0-1.075-0.013-1.612,0.004c-0.578,0.018-0.709,0.233-0.519,0.792
	c0.257,0.752,0.937,1.267,1.758,1.283c0.405,0.008,0.822-0.009,1.214-0.099c0.427-0.098,0.715,0.02,0.749,0.429
	c0.012,0.144-0.289,0.4-0.491,0.461c-1.386,0.421-2.687,0.318-3.749-0.795c-1.24-1.299-1.101-4.053,0.249-5.234
	c0.809-0.707,2.25-0.798,3.271-0.207C71.06,67.697,71.663,69.039,71.399,70.106z M76.675,71.865
	c-0.103,0.857-0.633,1.318-1.414,1.577c-0.649,0.215-1.435,0.224-2.096,0.046c-0.287-0.077-0.569-0.254-0.669-0.533
	c-0.015-0.041-0.025-0.086-0.014-0.128c0.009-0.035,0.033-0.065,0.059-0.091c0.297-0.301,0.756-0.21,1.128-0.159
	c0.283,0.039,0.569,0.078,0.853,0.017c0.345-0.074,0.755-0.455,0.867-0.789c0.076-0.226-0.252-0.689-0.515-0.902
	c-0.377-0.304-0.861-0.475-1.299-0.702c-1.078-0.56-1.438-1.481-0.928-2.452c0.448-0.852,1.267-0.938,2.25-0.974
	c0.495-0.018,1.119,0.092,1.279,0.64c0.003,0.011,0.006,0.022,0.004,0.034c-0.003,0.017-0.016,0.03-0.029,0.041
	c-0.144,0.132-0.296,0.269-0.486,0.317c-0.29,0.073-0.541-0.068-0.822-0.091c-0.301-0.025-0.611,0.055-0.857,0.23
	c-0.169,0.121-0.314,0.297-0.335,0.503c-0.014,0.141,0.031,0.282,0.098,0.407c0.242,0.451,0.739,0.696,1.211,0.893
	C75.858,70.125,76.811,70.735,76.675,71.865z M80.385,73.458c-0.739,0.219-2.055,0.331-2.66-0.274
	c-0.07-0.07-0.13-0.166-0.109-0.262c0.01-0.044,0.036-0.082,0.063-0.119c0.417-0.554,0.956-0.187,1.506-0.125
	c0.617,0.07,1.258-0.272,1.371-0.735c0.144-0.596-0.244-0.914-0.688-1.178c-0.24-0.143-0.487-0.274-0.74-0.391
	c-1.302-0.604-1.675-1.172-1.458-2.24c0.174-0.853,0.989-1.344,2.233-1.379c0.449,0.07,1.18,0.015,1.407,0.513
	c0.082,0.179,0.045,0.419-0.117,0.531c-0.101,0.07-0.233,0.082-0.355,0.066c-0.676-0.086-1.31-0.358-1.854,0.225
	c-0.08,0.085-0.149,0.186-0.171,0.301c-0.024,0.127,0.012,0.257,0.067,0.374c0.131,0.281,0.367,0.503,0.63,0.668
	c0.393,0.246,0.845,0.388,1.255,0.604c0.737,0.388,1.196,1.177,1.081,1.889C81.711,72.76,81.184,73.221,80.385,73.458z
	 M68.703,67.621c-0.692-0.022-1.362,0.475-1.587,1.177c-0.173,0.543-0.033,0.746,0.55,0.767c0.32,0.012,0.641,0.002,0.962,0.002
	c0.342,0,0.684-0.012,1.026,0.003c0.556,0.024,0.659-0.24,0.518-0.724C69.965,68.136,69.393,67.643,68.703,67.621z M40.56,69.421
	c-0.331-0.082-0.674-0.113-1.011-0.167c-1.049,0.029-1.052,0.032-1.054,1.058c-0.001,0.343-0.001,0.687,0,1.03
	c0.001,1.077,0.279,1.321,1.351,1.135c0.355-0.062,0.723-0.146,1.042-0.305c0.581-0.29,0.921-0.764,0.84-1.456
	C41.648,70.051,41.246,69.591,40.56,69.421z M40.216,68.166c0.888-0.237,1.286-0.849,1.125-1.727
	c-0.158-0.857-0.986-1.279-2.274-1.149c-0.289,0.029-0.501,0.166-0.563,0.467c-0.069,0.338-0.063,0.685-0.048,1.029
	c0.002,0.056,0.005,0.111,0.008,0.166c0.018,0.362-0.017,0.749,0.19,1.066C39.012,68.568,39.708,68.302,40.216,68.166z"/>
</svg>
